<?xml version="1.0" encoding="UTF-8"?>
<!DOCTYPE svg PUBLIC "-//W3C//DTD SVG 1.1//EN" "http://www.w3.org/Graphics/SVG/1.1/DTD/svg11.dtd">
<!-- Creator: CorelDRAW X5 -->
<svg xmlns="http://www.w3.org/2000/svg" xml:space="preserve" width="191.884mm" height="130mm" style="shape-rendering:geometricPrecision; text-rendering:geometricPrecision; image-rendering:optimizeQuality; fill-rule:evenodd; clip-rule:evenodd"
viewBox="0 0 19188 13000"
 xmlns:xlink="http://www.w3.org/1999/xlink">
 <defs>
  <style type="text/css">
   <![CDATA[
    .fil0 {fill:black}
    .fil2 {fill:#ED2324}
    .fil1 {fill:#FFDE00}
   ]]>
  </style>
 </defs>
 <g id="Layer_x0020_1">
  <metadata id="CorelCorpID_0Corel-Layer"/>
  <path class="fil0" d="M7793 12163c29,-309 113,-691 287,-1040 478,98 809,328 1071,683 224,303 374,700 436,1195l1590 0 391 -1278 343 -34 -342 1312 1714 0c763,-2069 1527,-4137 2290,-6206 836,-267 1560,-734 2177,-1392 -298,0 -595,0 -893,0 277,-81 600,-108 958,-93 215,-180 422,-475 597,-769 152,-255 280,-509 355,-702 253,-155 368,-530 421,-1000 -1014,-11 -2024,-23 -3039,-34 -432,-679 -969,-1214 -1558,-1647 -750,-550 -1613,-952 -2551,-1157 110,216 220,431 330,647 -615,-309 -1317,-475 -2154,-538 -813,-61 -1835,27 -2762,237 527,432 974,819 1383,1180 -983,-17 -1749,111 -2521,330 -556,158 -1071,363 -1534,598 634,330 1100,596 1901,990 -1039,36 -2012,282 -2938,663 -970,400 -1884,971 -2744,1703 1090,321 2179,643 3269,964 -1696,452 -3142,1328 -4268,2638 1105,73 2210,146 3316,219 -510,405 -1021,810 -1531,1216 1084,6 2167,12 3251,18 -287,291 -483,505 -555,610l-673 0 10 1525 4070 0c-89,-223 -123,-528 -94,-837z"/>
  <path class="fil1" d="M13056 12680c774,-2002 1549,-4003 2323,-6005 496,-222 1096,-541 1423,-746 225,-141 422,-281 574,-414 -373,0 -745,0 -1118,0 402,-224 880,-335 1424,-349 349,-372 669,-798 883,-1417 219,-180 354,-436 352,-728 -947,-4 -1893,-8 -2840,-12 -405,-544 -696,-882 -1324,-1405 -676,-563 -1570,-1040 -2334,-1289 115,229 215,454 306,676 -654,-309 -1532,-567 -2384,-654 -785,-80 -1598,-67 -2478,129 508,421 1016,841 1523,1262 -1384,-93 -2735,119 -4038,765 714,368 1429,737 2143,1105 -2117,16 -4074,658 -5834,2070 1230,383 2461,767 3691,1150 -1763,325 -3379,1171 -4637,2354 1104,72 2209,144 3313,217 -470,397 -940,794 -1410,1191 648,0 1296,0 1944,0 585,-685 1190,-1284 1817,-1796 -716,-109 -1432,-218 -2147,-327 782,-763 1916,-1372 3395,-1743 -984,-463 -1967,-927 -2951,-1390 771,-402 1780,-728 2732,-929 793,-168 1617,-270 2480,-233 -640,-441 -1279,-881 -1919,-1322 1088,-260 2386,-278 3629,79 -326,-406 -652,-811 -979,-1217 1153,276 2167,935 3007,2068 -679,5 -1314,133 -1919,341 235,142 471,285 706,427 -1535,488 -2639,939 -3039,1204 386,156 771,311 1157,467 -1214,521 -2101,1023 -2571,1503 370,55 740,109 1110,163 -870,597 -2194,1648 -2476,1891 -724,624 -1463,1238 -2007,1991 -155,0 -310,0 -465,0 0,307 0,614 0,921l1382 0c145,-1083 1042,-1918 2195,-1918 1153,0 2087,818 2195,1918l1044 0 446 -1240 902 -76 -363 1316 1135 0z"/>
  <path class="fil1" d="M7500 12680c-51,-148 -56,-344 -14,-586 42,-238 131,-550 261,-851 -317,-6 -778,255 -1024,510 -304,316 -400,606 -408,927l1185 0z"/>
  <polygon class="fil2" points="15680,3730 15928,3715 13658,2718 13630,2719 14201,3231 14172,3498 16060,4161 "/>
  <polygon class="fil2" points="15705,3700 15953,3685 13684,2688 13655,2689 14227,3201 14197,3468 16086,4131 "/>
 </g>
</svg>
